<?xml version="1.0" encoding="utf-8" standalone="no"?>
<!DOCTYPE svg PUBLIC "-//W3C//DTD SVG 1.1//EN"
  "http://www.w3.org/Graphics/SVG/1.1/DTD/svg11.dtd">
<svg xmlns:xlink="http://www.w3.org/1999/xlink" width="716.428984pt" height="219.600859pt" viewBox="0 0 716.428984 219.600859" xmlns="http://www.w3.org/2000/svg" version="1.1">
 <metadata>
  <rdf:RDF xmlns:dc="http://purl.org/dc/elements/1.1/" xmlns:cc="http://creativecommons.org/ns#" xmlns:rdf="http://www.w3.org/1999/02/22-rdf-syntax-ns#">
   <cc:Work>
    <dc:type rdf:resource="http://purl.org/dc/dcmitype/StillImage"/>
    <dc:date>2026-09-18T23:14:42.251558</dc:date>
    <dc:format>image/svg+xml</dc:format>
    <dc:creator>
     <cc:Agent>
      <dc:title>Matplotlib v3.11.2, https://matplotlib.org/</dc:title>
     </cc:Agent>
    </dc:creator>
   </cc:Work>
  </rdf:RDF>
 </metadata>
 <defs>
  <style type="text/css">*{stroke-linejoin: round; stroke-linecap: butt}</style>
 </defs>
 <g id="figure_1">
  <g id="patch_1">
   <path d="M -0 219.600859 
L 716.428984 219.600859 
L 716.428984 0 
L -0 0 
z
" style="fill: #ffffff"/>
  </g>
  <g id="axes_1">
   <g id="patch_2">
    <path d="M 58.748984 191.52 
L 706.348984 191.52 
L 706.348984 10.08 
L 58.748984 10.08 
z
" style="fill: #ffffff"/>
   </g>
   <g id="matplotlib.axis_1">
    <g id="xtick_1">
     <g id="line2d_1">
      <defs>
       <path id="m07665f8923" d="M 0 0 
L 0 3.5 
" style="stroke: #344a59; stroke-width: 0.8"/>
      </defs>
      <g>
       <use xlink:href="#m07665f8923" x="104.290349" y="191.52" style="fill: #344a59; stroke: #344a59; stroke-width: 0.8"/>
      </g>
     </g>
     <g id="text_1">
      <!-- Nov 2025 -->
      <g style="fill: #344a59" transform="translate(77.809568 206.877422) scale(0.11 -0.11)">
       <defs>
        <path id="DejaVuSans-31" d="M 628 4666 
L 1478 4666 
L 3547 763 
L 3547 4666 
L 4159 4666 
L 4159 0 
L 3309 0 
L 1241 3903 
L 1241 0 
L 628 0 
L 628 4666 
z
" transform="scale(0.015625)"/>
        <path id="DejaVuSans-52" d="M 1959 3097 
Q 1497 3097 1228 2736 
Q 959 2375 959 1747 
Q 959 1119 1226 758 
Q 1494 397 1959 397 
Q 2419 397 2687 759 
Q 2956 1122 2956 1747 
Q 2956 2369 2687 2733 
Q 2419 3097 1959 3097 
z
M 1959 3584 
Q 2709 3584 3137 3096 
Q 3566 2609 3566 1747 
Q 3566 888 3137 398 
Q 2709 -91 1959 -91 
Q 1206 -91 779 398 
Q 353 888 353 1747 
Q 353 2609 779 3096 
Q 1206 3584 1959 3584 
z
" transform="scale(0.015625)"/>
        <path id="DejaVuSans-59" d="M 191 3500 
L 800 3500 
L 1894 563 
L 2988 3500 
L 3597 3500 
L 2284 0 
L 1503 0 
L 191 3500 
z
" transform="scale(0.015625)"/>
        <path id="DejaVuSans-3" transform="scale(0.015625)"/>
        <path id="DejaVuSans-15" d="M 1228 531 
L 3431 531 
L 3431 0 
L 469 0 
L 469 531 
Q 828 903 1448 1529 
Q 2069 2156 2228 2338 
Q 2531 2678 2651 2914 
Q 2772 3150 2772 3378 
Q 2772 3750 2511 3984 
Q 2250 4219 1831 4219 
Q 1534 4219 1204 4116 
Q 875 4013 500 3803 
L 500 4441 
Q 881 4594 1212 4672 
Q 1544 4750 1819 4750 
Q 2544 4750 2975 4387 
Q 3406 4025 3406 3419 
Q 3406 3131 3298 2873 
Q 3191 2616 2906 2266 
Q 2828 2175 2409 1742 
Q 1991 1309 1228 531 
z
" transform="scale(0.015625)"/>
        <path id="DejaVuSans-13" d="M 2034 4250 
Q 1547 4250 1301 3770 
Q 1056 3291 1056 2328 
Q 1056 1369 1301 889 
Q 1547 409 2034 409 
Q 2525 409 2770 889 
Q 3016 1369 3016 2328 
Q 3016 3291 2770 3770 
Q 2525 4250 2034 4250 
z
M 2034 4750 
Q 2819 4750 3233 4129 
Q 3647 3509 3647 2328 
Q 3647 1150 3233 529 
Q 2819 -91 2034 -91 
Q 1250 -91 836 529 
Q 422 1150 422 2328 
Q 422 3509 836 4129 
Q 1250 4750 2034 4750 
z
" transform="scale(0.015625)"/>
        <path id="DejaVuSans-18" d="M 691 4666 
L 3169 4666 
L 3169 4134 
L 1269 4134 
L 1269 2991 
Q 1406 3038 1543 3061 
Q 1681 3084 1819 3084 
Q 2600 3084 3056 2656 
Q 3513 2228 3513 1497 
Q 3513 744 3044 326 
Q 2575 -91 1722 -91 
Q 1428 -91 1123 -41 
Q 819 9 494 109 
L 494 744 
Q 775 591 1075 516 
Q 1375 441 1709 441 
Q 2250 441 2565 725 
Q 2881 1009 2881 1497 
Q 2881 1984 2565 2268 
Q 2250 2553 1709 2553 
Q 1456 2553 1204 2497 
Q 953 2441 691 2322 
L 691 4666 
z
" transform="scale(0.015625)"/>
       </defs>
       <use xlink:href="#DejaVuSans-31"/>
       <use xlink:href="#DejaVuSans-52" transform="translate(74.8125 0)"/>
       <use xlink:href="#DejaVuSans-59" transform="translate(136 0)"/>
       <use xlink:href="#DejaVuSans-3" transform="translate(195.1875 0)"/>
       <use xlink:href="#DejaVuSans-15" transform="translate(226.96875 0)"/>
       <use xlink:href="#DejaVuSans-13" transform="translate(290.59375 0)"/>
       <use xlink:href="#DejaVuSans-15" transform="translate(354.21875 0)"/>
       <use xlink:href="#DejaVuSans-18" transform="translate(417.84375 0)"/>
      </g>
     </g>
    </g>
    <g id="xtick_2">
     <g id="line2d_2">
      <g>
       <use xlink:href="#m07665f8923" x="213.44647" y="191.52" style="fill: #344a59; stroke: #344a59; stroke-width: 0.8"/>
      </g>
     </g>
     <g id="text_2">
      <!-- Jan 2026 -->
      <g style="fill: #344a59" transform="translate(189.222407 206.877422) scale(0.11 -0.11)">
       <defs>
        <path id="DejaVuSans-2d" d="M 628 4666 
L 1259 4666 
L 1259 325 
Q 1259 -519 939 -900 
Q 619 -1281 -91 -1281 
L -331 -1281 
L -331 -750 
L -134 -750 
Q 284 -750 456 -515 
Q 628 -281 628 325 
L 628 4666 
z
" transform="scale(0.015625)"/>
        <path id="DejaVuSans-44" d="M 2194 1759 
Q 1497 1759 1228 1600 
Q 959 1441 959 1056 
Q 959 750 1161 570 
Q 1363 391 1709 391 
Q 2188 391 2477 730 
Q 2766 1069 2766 1631 
L 2766 1759 
L 2194 1759 
z
M 3341 1997 
L 3341 0 
L 2766 0 
L 2766 531 
Q 2569 213 2275 61 
Q 1981 -91 1556 -91 
Q 1019 -91 701 211 
Q 384 513 384 1019 
Q 384 1609 779 1909 
Q 1175 2209 1959 2209 
L 2766 2209 
L 2766 2266 
Q 2766 2663 2505 2880 
Q 2244 3097 1772 3097 
Q 1472 3097 1187 3025 
Q 903 2953 641 2809 
L 641 3341 
Q 956 3463 1253 3523 
Q 1550 3584 1831 3584 
Q 2591 3584 2966 3190 
Q 3341 2797 3341 1997 
z
" transform="scale(0.015625)"/>
        <path id="DejaVuSans-51" d="M 3513 2113 
L 3513 0 
L 2938 0 
L 2938 2094 
Q 2938 2591 2744 2837 
Q 2550 3084 2163 3084 
Q 1697 3084 1428 2787 
Q 1159 2491 1159 1978 
L 1159 0 
L 581 0 
L 581 3500 
L 1159 3500 
L 1159 2956 
Q 1366 3272 1645 3428 
Q 1925 3584 2291 3584 
Q 2894 3584 3203 3211 
Q 3513 2838 3513 2113 
z
" transform="scale(0.015625)"/>
        <path id="DejaVuSans-19" d="M 2113 2584 
Q 1688 2584 1439 2293 
Q 1191 2003 1191 1497 
Q 1191 994 1439 701 
Q 1688 409 2113 409 
Q 2538 409 2786 701 
Q 3034 994 3034 1497 
Q 3034 2003 2786 2293 
Q 2538 2584 2113 2584 
z
M 3366 4563 
L 3366 3988 
Q 3128 4100 2886 4159 
Q 2644 4219 2406 4219 
Q 1781 4219 1451 3797 
Q 1122 3375 1075 2522 
Q 1259 2794 1537 2939 
Q 1816 3084 2150 3084 
Q 2853 3084 3261 2657 
Q 3669 2231 3669 1497 
Q 3669 778 3244 343 
Q 2819 -91 2113 -91 
Q 1303 -91 875 529 
Q 447 1150 447 2328 
Q 447 3434 972 4092 
Q 1497 4750 2381 4750 
Q 2619 4750 2861 4703 
Q 3103 4656 3366 4563 
z
" transform="scale(0.015625)"/>
       </defs>
       <use xlink:href="#DejaVuSans-2d"/>
       <use xlink:href="#DejaVuSans-44" transform="translate(29.5 0)"/>
       <use xlink:href="#DejaVuSans-51" transform="translate(90.78125 0)"/>
       <use xlink:href="#DejaVuSans-3" transform="translate(154.15625 0)"/>
       <use xlink:href="#DejaVuSans-15" transform="translate(185.9375 0)"/>
       <use xlink:href="#DejaVuSans-13" transform="translate(249.5625 0)"/>
       <use xlink:href="#DejaVuSans-15" transform="translate(313.1875 0)"/>
       <use xlink:href="#DejaVuSans-19" transform="translate(376.8125 0)"/>
      </g>
     </g>
    </g>
    <g id="xtick_3">
     <g id="line2d_3">
      <g>
       <use xlink:href="#m07665f8923" x="319.023701" y="191.52" style="fill: #344a59; stroke: #344a59; stroke-width: 0.8"/>
      </g>
     </g>
     <g id="text_3">
      <!-- Mar 2026 -->
      <g style="fill: #344a59" transform="translate(292.901279 206.877422) scale(0.11 -0.11)">
       <defs>
        <path id="DejaVuSans-30" d="M 628 4666 
L 1569 4666 
L 2759 1491 
L 3956 4666 
L 4897 4666 
L 4897 0 
L 4281 0 
L 4281 4097 
L 3078 897 
L 2444 897 
L 1241 4097 
L 1241 0 
L 628 0 
L 628 4666 
z
" transform="scale(0.015625)"/>
        <path id="DejaVuSans-55" d="M 2631 2963 
Q 2534 3019 2420 3045 
Q 2306 3072 2169 3072 
Q 1681 3072 1420 2755 
Q 1159 2438 1159 1844 
L 1159 0 
L 581 0 
L 581 3500 
L 1159 3500 
L 1159 2956 
Q 1341 3275 1631 3429 
Q 1922 3584 2338 3584 
Q 2397 3584 2469 3576 
Q 2541 3569 2628 3553 
L 2631 2963 
z
" transform="scale(0.015625)"/>
       </defs>
       <use xlink:href="#DejaVuSans-30"/>
       <use xlink:href="#DejaVuSans-44" transform="translate(86.28125 0)"/>
       <use xlink:href="#DejaVuSans-55" transform="translate(147.5625 0)"/>
       <use xlink:href="#DejaVuSans-3" transform="translate(188.671875 0)"/>
       <use xlink:href="#DejaVuSans-15" transform="translate(220.453125 0)"/>
       <use xlink:href="#DejaVuSans-13" transform="translate(284.078125 0)"/>
       <use xlink:href="#DejaVuSans-15" transform="translate(347.703125 0)"/>
       <use xlink:href="#DejaVuSans-19" transform="translate(411.328125 0)"/>
      </g>
     </g>
    </g>
    <g id="xtick_4">
     <g id="line2d_4">
      <g>
       <use xlink:href="#m07665f8923" x="428.179822" y="191.52" style="fill: #344a59; stroke: #344a59; stroke-width: 0.8"/>
      </g>
     </g>
     <g id="text_4">
      <!-- May 2026 -->
      <g style="fill: #344a59" transform="translate(401.063103 206.877422) scale(0.11 -0.11)">
       <defs>
        <path id="DejaVuSans-5c" d="M 2059 -325 
Q 1816 -950 1584 -1140 
Q 1353 -1331 966 -1331 
L 506 -1331 
L 506 -850 
L 844 -850 
Q 1081 -850 1212 -737 
Q 1344 -625 1503 -206 
L 1606 56 
L 191 3500 
L 800 3500 
L 1894 763 
L 2988 3500 
L 3597 3500 
L 2059 -325 
z
" transform="scale(0.015625)"/>
       </defs>
       <use xlink:href="#DejaVuSans-30"/>
       <use xlink:href="#DejaVuSans-44" transform="translate(86.28125 0)"/>
       <use xlink:href="#DejaVuSans-5c" transform="translate(147.5625 0)"/>
       <use xlink:href="#DejaVuSans-3" transform="translate(206.75 0)"/>
       <use xlink:href="#DejaVuSans-15" transform="translate(238.53125 0)"/>
       <use xlink:href="#DejaVuSans-13" transform="translate(302.15625 0)"/>
       <use xlink:href="#DejaVuSans-15" transform="translate(365.78125 0)"/>
       <use xlink:href="#DejaVuSans-19" transform="translate(429.40625 0)"/>
      </g>
     </g>
    </g>
    <g id="xtick_5">
     <g id="line2d_5">
      <g>
       <use xlink:href="#m07665f8923" x="537.335942" y="191.52" style="fill: #344a59; stroke: #344a59; stroke-width: 0.8"/>
      </g>
     </g>
     <g id="text_5">
      <!-- Jul 2026 -->
      <g style="fill: #344a59" transform="translate(514.95438 206.878281) scale(0.11 -0.11)">
       <defs>
        <path id="DejaVuSans-58" d="M 544 1381 
L 544 3500 
L 1119 3500 
L 1119 1403 
Q 1119 906 1312 657 
Q 1506 409 1894 409 
Q 2359 409 2629 706 
Q 2900 1003 2900 1516 
L 2900 3500 
L 3475 3500 
L 3475 0 
L 2900 0 
L 2900 538 
Q 2691 219 2414 64 
Q 2138 -91 1772 -91 
Q 1169 -91 856 284 
Q 544 659 544 1381 
z
M 1991 3584 
L 1991 3584 
z
" transform="scale(0.015625)"/>
        <path id="DejaVuSans-4f" d="M 603 4863 
L 1178 4863 
L 1178 0 
L 603 0 
L 603 4863 
z
" transform="scale(0.015625)"/>
       </defs>
       <use xlink:href="#DejaVuSans-2d"/>
       <use xlink:href="#DejaVuSans-58" transform="translate(29.5 0)"/>
       <use xlink:href="#DejaVuSans-4f" transform="translate(92.875 0)"/>
       <use xlink:href="#DejaVuSans-3" transform="translate(120.65625 0)"/>
       <use xlink:href="#DejaVuSans-15" transform="translate(152.4375 0)"/>
       <use xlink:href="#DejaVuSans-13" transform="translate(216.0625 0)"/>
       <use xlink:href="#DejaVuSans-15" transform="translate(279.6875 0)"/>
       <use xlink:href="#DejaVuSans-19" transform="translate(343.3125 0)"/>
      </g>
     </g>
    </g>
    <g id="xtick_6">
     <g id="line2d_6">
      <g>
       <use xlink:href="#m07665f8923" x="648.281507" y="191.52" style="fill: #344a59; stroke: #344a59; stroke-width: 0.8"/>
      </g>
     </g>
     <g id="text_6">
      <!-- Sep 2026 -->
      <g style="fill: #344a59" transform="translate(622.168538 206.877422) scale(0.11 -0.11)">
       <defs>
        <path id="DejaVuSans-36" d="M 3425 4513 
L 3425 3897 
Q 3066 4069 2747 4153 
Q 2428 4238 2131 4238 
Q 1616 4238 1336 4038 
Q 1056 3838 1056 3469 
Q 1056 3159 1242 3001 
Q 1428 2844 1947 2747 
L 2328 2669 
Q 3034 2534 3370 2195 
Q 3706 1856 3706 1288 
Q 3706 609 3251 259 
Q 2797 -91 1919 -91 
Q 1588 -91 1214 -16 
Q 841 59 441 206 
L 441 856 
Q 825 641 1194 531 
Q 1563 422 1919 422 
Q 2459 422 2753 634 
Q 3047 847 3047 1241 
Q 3047 1584 2836 1778 
Q 2625 1972 2144 2069 
L 1759 2144 
Q 1053 2284 737 2584 
Q 422 2884 422 3419 
Q 422 4038 858 4394 
Q 1294 4750 2059 4750 
Q 2388 4750 2728 4690 
Q 3069 4631 3425 4513 
z
" transform="scale(0.015625)"/>
        <path id="DejaVuSans-48" d="M 3597 1894 
L 3597 1613 
L 953 1613 
Q 991 1019 1311 708 
Q 1631 397 2203 397 
Q 2534 397 2845 478 
Q 3156 559 3463 722 
L 3463 178 
Q 3153 47 2828 -22 
Q 2503 -91 2169 -91 
Q 1331 -91 842 396 
Q 353 884 353 1716 
Q 353 2575 817 3079 
Q 1281 3584 2069 3584 
Q 2775 3584 3186 3129 
Q 3597 2675 3597 1894 
z
M 3022 2063 
Q 3016 2534 2758 2815 
Q 2500 3097 2075 3097 
Q 1594 3097 1305 2825 
Q 1016 2553 972 2059 
L 3022 2063 
z
" transform="scale(0.015625)"/>
        <path id="DejaVuSans-53" d="M 1159 525 
L 1159 -1331 
L 581 -1331 
L 581 3500 
L 1159 3500 
L 1159 2969 
Q 1341 3281 1617 3432 
Q 1894 3584 2278 3584 
Q 2916 3584 3314 3078 
Q 3713 2572 3713 1747 
Q 3713 922 3314 415 
Q 2916 -91 2278 -91 
Q 1894 -91 1617 61 
Q 1341 213 1159 525 
z
M 3116 1747 
Q 3116 2381 2855 2742 
Q 2594 3103 2138 3103 
Q 1681 3103 1420 2742 
Q 1159 2381 1159 1747 
Q 1159 1113 1420 752 
Q 1681 391 2138 391 
Q 2594 391 2855 752 
Q 3116 1113 3116 1747 
z
" transform="scale(0.015625)"/>
       </defs>
       <use xlink:href="#DejaVuSans-36"/>
       <use xlink:href="#DejaVuSans-48" transform="translate(63.484375 0)"/>
       <use xlink:href="#DejaVuSans-53" transform="translate(125.015625 0)"/>
       <use xlink:href="#DejaVuSans-3" transform="translate(188.5 0)"/>
       <use xlink:href="#DejaVuSans-15" transform="translate(220.28125 0)"/>
       <use xlink:href="#DejaVuSans-13" transform="translate(283.90625 0)"/>
       <use xlink:href="#DejaVuSans-15" transform="translate(347.53125 0)"/>
       <use xlink:href="#DejaVuSans-19" transform="translate(411.15625 0)"/>
      </g>
     </g>
    </g>
   </g>
   <g id="matplotlib.axis_2">
    <g id="ytick_1">
     <g id="line2d_7">
      <path d="M 58.748984 181.166361 
L 706.348984 181.166361 
" clip-path="url(#p1b99f9dcc8)" style="fill: none; stroke: #e1e7ec; stroke-width: 0.7; stroke-linecap: square"/>
     </g>
     <g id="line2d_8">
      <defs>
       <path id="maa7d4f1011" d="M 0 0 
L -3.5 0 
" style="stroke: #344a59; stroke-width: 0.8"/>
      </defs>
      <g>
       <use xlink:href="#maa7d4f1011" x="58.748984" y="181.166361" style="fill: #344a59; stroke: #344a59; stroke-width: 0.8"/>
      </g>
     </g>
     <g id="text_7">
      <!-- −3% -->
      <g style="fill: #344a59" transform="translate(25.080859 185.345072) scale(0.11 -0.11)">
       <defs>
        <path id="DejaVuSans-c9c" d="M 678 2272 
L 4684 2272 
L 4684 1741 
L 678 1741 
L 678 2272 
z
" transform="scale(0.015625)"/>
        <path id="DejaVuSans-16" d="M 2597 2516 
Q 3050 2419 3304 2112 
Q 3559 1806 3559 1356 
Q 3559 666 3084 287 
Q 2609 -91 1734 -91 
Q 1441 -91 1130 -33 
Q 819 25 488 141 
L 488 750 
Q 750 597 1062 519 
Q 1375 441 1716 441 
Q 2309 441 2620 675 
Q 2931 909 2931 1356 
Q 2931 1769 2642 2001 
Q 2353 2234 1838 2234 
L 1294 2234 
L 1294 2753 
L 1863 2753 
Q 2328 2753 2575 2939 
Q 2822 3125 2822 3475 
Q 2822 3834 2567 4026 
Q 2313 4219 1838 4219 
Q 1578 4219 1281 4162 
Q 984 4106 628 3988 
L 628 4550 
Q 988 4650 1302 4700 
Q 1616 4750 1894 4750 
Q 2613 4750 3031 4423 
Q 3450 4097 3450 3541 
Q 3450 3153 3228 2886 
Q 3006 2619 2597 2516 
z
" transform="scale(0.015625)"/>
        <path id="DejaVuSans-8" d="M 4653 2053 
Q 4381 2053 4226 1822 
Q 4072 1591 4072 1178 
Q 4072 772 4226 539 
Q 4381 306 4653 306 
Q 4919 306 5073 539 
Q 5228 772 5228 1178 
Q 5228 1588 5073 1820 
Q 4919 2053 4653 2053 
z
M 4653 2450 
Q 5147 2450 5437 2106 
Q 5728 1763 5728 1178 
Q 5728 594 5436 251 
Q 5144 -91 4653 -91 
Q 4153 -91 3862 251 
Q 3572 594 3572 1178 
Q 3572 1766 3864 2108 
Q 4156 2450 4653 2450 
z
M 1428 4353 
Q 1159 4353 1004 4120 
Q 850 3888 850 3481 
Q 850 3069 1003 2837 
Q 1156 2606 1428 2606 
Q 1700 2606 1854 2837 
Q 2009 3069 2009 3481 
Q 2009 3884 1853 4118 
Q 1697 4353 1428 4353 
z
M 4250 4750 
L 4750 4750 
L 1831 -91 
L 1331 -91 
L 4250 4750 
z
M 1428 4750 
Q 1922 4750 2215 4408 
Q 2509 4066 2509 3481 
Q 2509 2891 2217 2550 
Q 1925 2209 1428 2209 
Q 931 2209 642 2551 
Q 353 2894 353 3481 
Q 353 4063 643 4406 
Q 934 4750 1428 4750 
z
" transform="scale(0.015625)"/>
       </defs>
       <use xlink:href="#DejaVuSans-c9c"/>
       <use xlink:href="#DejaVuSans-16" transform="translate(83.796875 0)"/>
       <use xlink:href="#DejaVuSans-8" transform="translate(147.421875 0)"/>
      </g>
     </g>
    </g>
    <g id="ytick_2">
     <g id="line2d_9">
      <path d="M 58.748984 143.864841 
L 706.348984 143.864841 
" clip-path="url(#p1b99f9dcc8)" style="fill: none; stroke: #e1e7ec; stroke-width: 0.7; stroke-linecap: square"/>
     </g>
     <g id="line2d_10">
      <g>
       <use xlink:href="#maa7d4f1011" x="58.748984" y="143.864841" style="fill: #344a59; stroke: #344a59; stroke-width: 0.8"/>
      </g>
     </g>
     <g id="text_8">
      <!-- −2% -->
      <g style="fill: #344a59" transform="translate(25.080859 148.043552) scale(0.11 -0.11)">
       <use xlink:href="#DejaVuSans-c9c"/>
       <use xlink:href="#DejaVuSans-15" transform="translate(83.796875 0)"/>
       <use xlink:href="#DejaVuSans-8" transform="translate(147.421875 0)"/>
      </g>
     </g>
    </g>
    <g id="ytick_3">
     <g id="line2d_11">
      <path d="M 58.748984 106.563321 
L 706.348984 106.563321 
" clip-path="url(#p1b99f9dcc8)" style="fill: none; stroke: #e1e7ec; stroke-width: 0.7; stroke-linecap: square"/>
     </g>
     <g id="line2d_12">
      <g>
       <use xlink:href="#maa7d4f1011" x="58.748984" y="106.563321" style="fill: #344a59; stroke: #344a59; stroke-width: 0.8"/>
      </g>
     </g>
     <g id="text_9">
      <!-- −1% -->
      <g style="fill: #344a59" transform="translate(25.080859 110.742031) scale(0.11 -0.11)">
       <defs>
        <path id="DejaVuSans-14" d="M 794 531 
L 1825 531 
L 1825 4091 
L 703 3866 
L 703 4441 
L 1819 4666 
L 2450 4666 
L 2450 531 
L 3481 531 
L 3481 0 
L 794 0 
L 794 531 
z
" transform="scale(0.015625)"/>
       </defs>
       <use xlink:href="#DejaVuSans-c9c"/>
       <use xlink:href="#DejaVuSans-14" transform="translate(83.796875 0)"/>
       <use xlink:href="#DejaVuSans-8" transform="translate(147.421875 0)"/>
      </g>
     </g>
    </g>
    <g id="ytick_4">
     <g id="line2d_13">
      <path d="M 58.748984 69.2618 
L 706.348984 69.2618 
" clip-path="url(#p1b99f9dcc8)" style="fill: none; stroke: #e1e7ec; stroke-width: 0.7; stroke-linecap: square"/>
     </g>
     <g id="line2d_14">
      <g>
       <use xlink:href="#maa7d4f1011" x="58.748984" y="69.2618" style="fill: #344a59; stroke: #344a59; stroke-width: 0.8"/>
      </g>
     </g>
     <g id="text_10">
      <!-- 0% -->
      <g style="fill: #344a59" transform="translate(34.298516 73.440511) scale(0.11 -0.11)">
       <use xlink:href="#DejaVuSans-13"/>
       <use xlink:href="#DejaVuSans-8" transform="translate(63.625 0)"/>
      </g>
     </g>
    </g>
    <g id="ytick_5">
     <g id="line2d_15">
      <path d="M 58.748984 31.96028 
L 706.348984 31.96028 
" clip-path="url(#p1b99f9dcc8)" style="fill: none; stroke: #e1e7ec; stroke-width: 0.7; stroke-linecap: square"/>
     </g>
     <g id="line2d_16">
      <g>
       <use xlink:href="#maa7d4f1011" x="58.748984" y="31.96028" style="fill: #344a59; stroke: #344a59; stroke-width: 0.8"/>
      </g>
     </g>
     <g id="text_11">
      <!-- 1% -->
      <g style="fill: #344a59" transform="translate(34.298516 36.138991) scale(0.11 -0.11)">
       <use xlink:href="#DejaVuSans-14"/>
       <use xlink:href="#DejaVuSans-8" transform="translate(63.625 0)"/>
      </g>
     </g>
    </g>
    <g id="text_12">
     <!-- Net portfolio return -->
     <g style="fill: #233746" transform="translate(18.438281 153.764141) rotate(-90) scale(0.11 -0.11)">
      <defs>
       <path id="DejaVuSans-57" d="M 1172 4494 
L 1172 3500 
L 2356 3500 
L 2356 3053 
L 1172 3053 
L 1172 1153 
Q 1172 725 1289 603 
Q 1406 481 1766 481 
L 2356 481 
L 2356 0 
L 1766 0 
Q 1100 0 847 248 
Q 594 497 594 1153 
L 594 3053 
L 172 3053 
L 172 3500 
L 594 3500 
L 594 4494 
L 1172 4494 
z
" transform="scale(0.015625)"/>
       <path id="DejaVuSans-49" d="M 2375 4863 
L 2375 4384 
L 1825 4384 
Q 1516 4384 1395 4259 
Q 1275 4134 1275 3809 
L 1275 3500 
L 2222 3500 
L 2222 3053 
L 1275 3053 
L 1275 0 
L 697 0 
L 697 3053 
L 147 3053 
L 147 3500 
L 697 3500 
L 697 3744 
Q 697 4328 969 4595 
Q 1241 4863 1831 4863 
L 2375 4863 
z
" transform="scale(0.015625)"/>
       <path id="DejaVuSans-4c" d="M 603 3500 
L 1178 3500 
L 1178 0 
L 603 0 
L 603 3500 
z
M 603 4863 
L 1178 4863 
L 1178 4134 
L 603 4134 
L 603 4863 
z
" transform="scale(0.015625)"/>
      </defs>
      <use xlink:href="#DejaVuSans-31"/>
      <use xlink:href="#DejaVuSans-48" transform="translate(74.8125 0)"/>
      <use xlink:href="#DejaVuSans-57" transform="translate(136.34375 0)"/>
      <use xlink:href="#DejaVuSans-3" transform="translate(175.546875 0)"/>
      <use xlink:href="#DejaVuSans-53" transform="translate(207.328125 0)"/>
      <use xlink:href="#DejaVuSans-52" transform="translate(270.8125 0)"/>
      <use xlink:href="#DejaVuSans-55" transform="translate(332 0)"/>
      <use xlink:href="#DejaVuSans-57" transform="translate(373.109375 0)"/>
      <use xlink:href="#DejaVuSans-49" transform="translate(412.3125 0)"/>
      <use xlink:href="#DejaVuSans-52" transform="translate(447.515625 0)"/>
      <use xlink:href="#DejaVuSans-4f" transform="translate(508.703125 0)"/>
      <use xlink:href="#DejaVuSans-4c" transform="translate(536.484375 0)"/>
      <use xlink:href="#DejaVuSans-52" transform="translate(564.265625 0)"/>
      <use xlink:href="#DejaVuSans-3" transform="translate(625.453125 0)"/>
      <use xlink:href="#DejaVuSans-55" transform="translate(657.234375 0)"/>
      <use xlink:href="#DejaVuSans-48" transform="translate(696.140625 0)"/>
      <use xlink:href="#DejaVuSans-57" transform="translate(757.671875 0)"/>
      <use xlink:href="#DejaVuSans-58" transform="translate(796.875 0)"/>
      <use xlink:href="#DejaVuSans-55" transform="translate(860.25 0)"/>
      <use xlink:href="#DejaVuSans-51" transform="translate(899.609375 0)"/>
     </g>
    </g>
   </g>
   <g id="line2d_17">
    <path d="M 88.185348 69.2618 
L 89.974793 71.126876 
L 95.343126 87.909354 
L 98.922016 108.386285 
L 100.71146 73.420363 
L 102.500905 74.430559 
L 109.658683 74.430559 
L 111.448128 75.361805 
L 113.237572 72.414614 
L 115.027017 63.527908 
L 120.395351 77.558522 
L 122.184795 92.408314 
L 123.97424 100.18348 
L 125.763685 99.93461 
L 127.553129 89.309952 
L 132.921463 96.651144 
L 134.710908 103.177209 
L 136.500352 105.299726 
L 138.289797 103.876149 
L 140.079241 110.561267 
L 145.447575 101.158381 
L 147.23702 113.725308 
L 149.026464 105.330391 
L 152.605354 98.398036 
L 215.235914 98.398036 
L 220.604248 100.248544 
L 222.393693 103.761728 
L 224.183137 104.009361 
L 225.972582 113.515274 
L 227.762027 110.557088 
L 233.13036 109.171403 
L 234.919805 119.030536 
L 236.70925 114.379433 
L 238.498694 112.087317 
L 240.288139 110.788081 
L 247.445917 105.293599 
L 249.235362 99.902091 
L 251.024806 82.720721 
L 252.814251 78.620772 
L 272.498142 78.620772 
L 274.287586 79.034194 
L 276.077031 88.076623 
L 277.866475 83.317877 
L 283.234809 72.009143 
L 285.024254 54.801172 
L 286.813698 63.77073 
L 288.603143 48.148796 
L 290.392588 40.305673 
L 297.550366 35.612843 
L 299.339811 38.182235 
L 301.129255 37.541622 
L 302.9187 37.229922 
L 308.287034 57.919951 
L 310.076478 63.177694 
L 311.865923 60.741495 
L 313.655367 53.843611 
L 315.444812 51.368082 
L 320.813146 51.368082 
L 322.60259 52.305093 
L 324.392035 48.42418 
L 326.18148 43.47753 
L 327.970924 47.555973 
L 333.339258 46.342585 
L 335.128703 46.4385 
L 336.918147 53.242832 
L 338.707592 64.811066 
L 340.497036 60.408552 
L 345.86537 52.973736 
L 347.654815 45.795802 
L 349.444259 50.480252 
L 351.233704 56.155595 
L 353.023149 52.280542 
L 358.391482 60.748081 
L 360.180927 59.148394 
L 361.970371 68.530208 
L 363.759816 70.986751 
L 365.549261 83.758788 
L 370.917594 79.105801 
L 372.707039 66.974489 
L 374.496484 66.974489 
L 376.285928 67.720977 
L 383.443707 65.02574 
L 385.233151 66.750897 
L 387.022596 67.861475 
L 388.81204 67.078768 
L 390.601485 69.383519 
L 395.969819 70.425796 
L 397.759263 71.639423 
L 399.548708 68.560016 
L 401.338153 64.956302 
L 403.127597 76.959664 
L 408.495931 77.462983 
L 410.285376 75.636418 
L 412.07482 77.073834 
L 413.864265 87.074135 
L 415.653709 92.290901 
L 421.022043 106.549803 
L 422.811488 112.679973 
L 424.600932 94.907405 
L 426.390377 47.882662 
L 428.179822 47.882662 
L 433.548155 49.133172 
L 435.3376 42.235785 
L 437.127045 43.461247 
L 438.916489 49.931101 
L 440.705934 51.54399 
L 446.074268 68.813737 
L 447.863712 67.513624 
L 449.653157 88.079368 
L 451.442601 30.005889 
L 453.232046 50.332052 
L 458.60038 55.85186 
L 460.389824 37.046225 
L 462.179269 31.409815 
L 463.968714 18.68421 
L 465.758158 18.327273 
L 472.915937 38.016621 
L 474.705381 46.273235 
L 476.494826 40.486315 
L 478.28427 48.081403 
L 483.652604 48.081403 
L 485.442049 49.019236 
L 487.231493 45.946688 
L 489.020938 36.302349 
L 490.810383 34.538735 
L 496.178716 34.70827 
L 497.968161 44.799945 
L 499.757606 32.600422 
L 501.54705 51.365288 
L 503.336495 46.605294 
L 508.704829 43.715208 
L 510.494273 36.196189 
L 512.283718 45.880454 
L 514.073162 61.195516 
L 521.230941 60.063315 
L 523.020385 63.321075 
L 526.599275 90.067137 
L 528.388719 85.789202 
L 533.757053 109.206066 
L 535.546498 109.514087 
L 562.388166 109.514087 
L 564.177611 111.359037 
L 565.967056 112.235665 
L 571.335389 93.690484 
L 573.124834 80.987649 
L 574.914279 80.264123 
L 576.703723 75.273667 
L 578.493168 93.028759 
L 633.96595 93.028759 
L 635.755395 96.735144 
L 637.54484 92.230744 
L 639.334284 127.99752 
L 641.123729 158.550284 
L 646.492063 180.257074 
L 676.912621 180.257074 
L 676.912621 180.257074 
" clip-path="url(#p1b99f9dcc8)" style="fill: none; stroke-dasharray: 7.03,3.04; stroke-dashoffset: 0; stroke: #24567b; stroke-width: 1.9"/>
   </g>
   <g id="line2d_18">
    <path d="M 88.185348 69.2618 
L 89.974793 71.126876 
L 95.343126 87.909354 
L 98.922016 108.386285 
L 100.71146 73.420363 
L 102.500905 74.430559 
L 111.448128 74.430559 
L 113.237572 75.361805 
L 115.027017 62.282084 
L 120.395351 71.797262 
L 122.184795 87.947166 
L 123.97424 93.826075 
L 125.763685 95.387366 
L 127.553129 81.535856 
L 132.921463 88.42287 
L 134.710908 96.468387 
L 136.500352 96.143299 
L 138.289797 89.717381 
L 140.079241 96.419563 
L 145.447575 87.029923 
L 147.23702 99.581358 
L 149.026464 91.207453 
L 152.605354 84.269189 
L 272.498142 84.269189 
L 274.287586 84.681982 
L 276.077031 93.710685 
L 277.866475 88.959163 
L 283.234809 77.667597 
L 285.024254 60.485748 
L 286.813698 69.44169 
L 288.603143 53.843471 
L 290.392588 46.012255 
L 297.550366 41.326548 
L 299.339811 43.89204 
L 301.129255 43.252399 
L 302.9187 42.941172 
L 308.287034 63.599793 
L 310.076478 68.849554 
L 311.865923 66.417054 
L 313.655367 59.529641 
L 315.444812 57.057869 
L 320.813146 57.057869 
L 322.60259 57.993458 
L 324.392035 54.118437 
L 326.18148 49.179297 
L 327.970924 53.251548 
L 333.339258 52.040002 
L 335.128703 52.135772 
L 336.918147 58.929773 
L 338.707592 70.480447 
L 340.497036 66.084616 
L 345.86537 58.661087 
L 347.654815 51.494049 
L 349.444259 56.171388 
L 351.233704 61.838116 
L 353.023149 57.968945 
L 358.391482 66.423629 
L 360.180927 64.826371 
L 361.970371 74.193943 
L 363.759816 76.646756 
L 365.549261 89.399405 
L 370.917594 84.753482 
L 372.707039 72.640586 
L 376.285928 72.640586 
L 383.443707 73.38594 
L 385.233151 75.108716 
L 387.022596 76.217761 
L 388.81204 75.436134 
L 390.601485 77.737703 
L 395.969819 78.778543 
L 397.759263 79.990392 
L 399.548708 76.915371 
L 401.338153 73.317179 
L 403.127597 85.303021 
L 408.495931 85.805614 
L 410.285376 83.981411 
L 412.07482 85.417134 
L 413.864265 95.402623 
L 415.653709 100.61129 
L 421.022043 114.848921 
L 422.811488 120.970237 
L 424.600932 103.224985 
L 426.390377 56.271454 
L 428.179822 56.271454 
L 433.548155 57.519169 
L 435.3376 50.637205 
L 437.127045 51.859926 
L 438.916489 58.315313 
L 440.705934 59.924595 
L 446.074268 77.155726 
L 447.863712 75.85852 
L 449.653157 96.378277 
L 451.442601 38.434655 
L 453.232046 58.715367 
L 458.60038 64.222832 
L 460.389824 45.459249 
L 462.179269 39.835442 
L 463.968714 25.890579 
L 465.758158 27.826553 
L 472.915937 37.153294 
L 474.705381 49.45893 
L 476.494826 43.721828 
L 478.28427 51.20719 
L 483.652604 51.20719 
L 485.442049 52.144242 
L 487.231493 49.074255 
L 489.020938 39.437952 
L 490.810383 37.675808 
L 496.178716 37.845201 
L 497.968161 47.928468 
L 499.757606 35.739109 
L 501.54705 54.48834 
L 503.336495 49.732312 
L 508.704829 46.844634 
L 510.494273 39.33188 
L 512.283718 49.008075 
L 514.073162 64.310376 
L 521.230941 63.179119 
L 523.020385 66.434165 
L 526.599275 93.15794 
L 528.388719 88.88357 
L 533.757053 112.280922 
L 535.546498 112.588686 
L 562.388166 112.588686 
L 564.177611 114.432099 
L 565.967056 115.307997 
L 571.335389 96.778268 
L 573.124834 84.086018 
L 574.914279 83.363095 
L 576.703723 78.376797 
L 578.493168 96.117094 
L 633.96595 96.117094 
L 635.755395 99.820391 
L 637.54484 95.319745 
L 639.334284 131.056718 
L 641.123729 161.584024 
L 646.492063 183.272727 
L 676.912621 183.272727 
L 676.912621 183.272727 
" clip-path="url(#p1b99f9dcc8)" style="fill: none; stroke: #ae4b13; stroke-width: 1.9; stroke-linecap: square"/>
   </g>
   <g id="line2d_19">
    <path d="M 58.748984 69.2618 
L 706.348984 69.2618 
" clip-path="url(#p1b99f9dcc8)" style="fill: none; stroke: #647783; stroke-width: 0.8; stroke-linecap: square"/>
   </g>
   <g id="legend_1">
    <g id="line2d_20">
     <path d="M 568.498984 23.178438 
L 578.498984 23.178438 
L 588.498984 23.178438 
" style="fill: none; stroke-dasharray: 7.03,3.04; stroke-dashoffset: 0; stroke: #24567b; stroke-width: 1.9"/>
    </g>
    <g id="text_13">
     <!-- Monthly OLS control -->
     <g transform="translate(596.498984 26.678438) scale(0.1 -0.1)">
      <defs>
       <path id="DejaVuSans-4b" d="M 3513 2113 
L 3513 0 
L 2938 0 
L 2938 2094 
Q 2938 2591 2744 2837 
Q 2550 3084 2163 3084 
Q 1697 3084 1428 2787 
Q 1159 2491 1159 1978 
L 1159 0 
L 581 0 
L 581 4863 
L 1159 4863 
L 1159 2956 
Q 1366 3272 1645 3428 
Q 1925 3584 2291 3584 
Q 2894 3584 3203 3211 
Q 3513 2838 3513 2113 
z
" transform="scale(0.015625)"/>
       <path id="DejaVuSans-32" d="M 2522 4238 
Q 1834 4238 1429 3725 
Q 1025 3213 1025 2328 
Q 1025 1447 1429 934 
Q 1834 422 2522 422 
Q 3209 422 3611 934 
Q 4013 1447 4013 2328 
Q 4013 3213 3611 3725 
Q 3209 4238 2522 4238 
z
M 2522 4750 
Q 3503 4750 4090 4092 
Q 4678 3434 4678 2328 
Q 4678 1225 4090 567 
Q 3503 -91 2522 -91 
Q 1538 -91 948 565 
Q 359 1222 359 2328 
Q 359 3434 948 4092 
Q 1538 4750 2522 4750 
z
" transform="scale(0.015625)"/>
       <path id="DejaVuSans-2f" d="M 628 4666 
L 1259 4666 
L 1259 531 
L 3531 531 
L 3531 0 
L 628 0 
L 628 4666 
z
" transform="scale(0.015625)"/>
       <path id="DejaVuSans-46" d="M 3122 3366 
L 3122 2828 
Q 2878 2963 2633 3030 
Q 2388 3097 2138 3097 
Q 1578 3097 1268 2742 
Q 959 2388 959 1747 
Q 959 1106 1268 751 
Q 1578 397 2138 397 
Q 2388 397 2633 464 
Q 2878 531 3122 666 
L 3122 134 
Q 2881 22 2623 -34 
Q 2366 -91 2075 -91 
Q 1284 -91 818 406 
Q 353 903 353 1747 
Q 353 2603 823 3093 
Q 1294 3584 2113 3584 
Q 2378 3584 2631 3529 
Q 2884 3475 3122 3366 
z
" transform="scale(0.015625)"/>
      </defs>
      <use xlink:href="#DejaVuSans-30"/>
      <use xlink:href="#DejaVuSans-52" transform="translate(86.28125 0)"/>
      <use xlink:href="#DejaVuSans-51" transform="translate(147.46875 0)"/>
      <use xlink:href="#DejaVuSans-57" transform="translate(210.84375 0)"/>
      <use xlink:href="#DejaVuSans-4b" transform="translate(250.046875 0)"/>
      <use xlink:href="#DejaVuSans-4f" transform="translate(313.421875 0)"/>
      <use xlink:href="#DejaVuSans-5c" transform="translate(341.203125 0)"/>
      <use xlink:href="#DejaVuSans-3" transform="translate(400.390625 0)"/>
      <use xlink:href="#DejaVuSans-32" transform="translate(432.171875 0)"/>
      <use xlink:href="#DejaVuSans-2f" transform="translate(510.890625 0)"/>
      <use xlink:href="#DejaVuSans-36" transform="translate(566.609375 0)"/>
      <use xlink:href="#DejaVuSans-3" transform="translate(630.09375 0)"/>
      <use xlink:href="#DejaVuSans-46" transform="translate(661.875 0)"/>
      <use xlink:href="#DejaVuSans-52" transform="translate(716.859375 0)"/>
      <use xlink:href="#DejaVuSans-51" transform="translate(778.046875 0)"/>
      <use xlink:href="#DejaVuSans-57" transform="translate(841.421875 0)"/>
      <use xlink:href="#DejaVuSans-55" transform="translate(880.625 0)"/>
      <use xlink:href="#DejaVuSans-52" transform="translate(919.53125 0)"/>
      <use xlink:href="#DejaVuSans-4f" transform="translate(980.71875 0)"/>
     </g>
    </g>
    <g id="line2d_21">
     <path d="M 568.498984 38.179219 
L 578.498984 38.179219 
L 588.498984 38.179219 
" style="fill: none; stroke: #ae4b13; stroke-width: 1.9; stroke-linecap: square"/>
    </g>
    <g id="text_14">
     <!-- ECM entry gate -->
     <g transform="translate(596.498984 41.679219) scale(0.1 -0.1)">
      <defs>
       <path id="DejaVuSans-28" d="M 628 4666 
L 3578 4666 
L 3578 4134 
L 1259 4134 
L 1259 2753 
L 3481 2753 
L 3481 2222 
L 1259 2222 
L 1259 531 
L 3634 531 
L 3634 0 
L 628 0 
L 628 4666 
z
" transform="scale(0.015625)"/>
       <path id="DejaVuSans-26" d="M 4122 4306 
L 4122 3641 
Q 3803 3938 3442 4084 
Q 3081 4231 2675 4231 
Q 1875 4231 1450 3742 
Q 1025 3253 1025 2328 
Q 1025 1406 1450 917 
Q 1875 428 2675 428 
Q 3081 428 3442 575 
Q 3803 722 4122 1019 
L 4122 359 
Q 3791 134 3420 21 
Q 3050 -91 2638 -91 
Q 1578 -91 968 557 
Q 359 1206 359 2328 
Q 359 3453 968 4101 
Q 1578 4750 2638 4750 
Q 3056 4750 3426 4639 
Q 3797 4528 4122 4306 
z
" transform="scale(0.015625)"/>
       <path id="DejaVuSans-4a" d="M 2906 1791 
Q 2906 2416 2648 2759 
Q 2391 3103 1925 3103 
Q 1463 3103 1205 2759 
Q 947 2416 947 1791 
Q 947 1169 1205 825 
Q 1463 481 1925 481 
Q 2391 481 2648 825 
Q 2906 1169 2906 1791 
z
M 3481 434 
Q 3481 -459 3084 -895 
Q 2688 -1331 1869 -1331 
Q 1566 -1331 1297 -1286 
Q 1028 -1241 775 -1147 
L 775 -588 
Q 1028 -725 1275 -790 
Q 1522 -856 1778 -856 
Q 2344 -856 2625 -561 
Q 2906 -266 2906 331 
L 2906 616 
Q 2728 306 2450 153 
Q 2172 0 1784 0 
Q 1141 0 747 490 
Q 353 981 353 1791 
Q 353 2603 747 3093 
Q 1141 3584 1784 3584 
Q 2172 3584 2450 3431 
Q 2728 3278 2906 2969 
L 2906 3500 
L 3481 3500 
L 3481 434 
z
" transform="scale(0.015625)"/>
      </defs>
      <use xlink:href="#DejaVuSans-28"/>
      <use xlink:href="#DejaVuSans-26" transform="translate(63.1875 0)"/>
      <use xlink:href="#DejaVuSans-30" transform="translate(133.015625 0)"/>
      <use xlink:href="#DejaVuSans-3" transform="translate(219.296875 0)"/>
      <use xlink:href="#DejaVuSans-48" transform="translate(251.078125 0)"/>
      <use xlink:href="#DejaVuSans-51" transform="translate(312.609375 0)"/>
      <use xlink:href="#DejaVuSans-57" transform="translate(375.984375 0)"/>
      <use xlink:href="#DejaVuSans-55" transform="translate(415.1875 0)"/>
      <use xlink:href="#DejaVuSans-5c" transform="translate(456.296875 0)"/>
      <use xlink:href="#DejaVuSans-3" transform="translate(515.484375 0)"/>
      <use xlink:href="#DejaVuSans-4a" transform="translate(547.265625 0)"/>
      <use xlink:href="#DejaVuSans-44" transform="translate(610.75 0)"/>
      <use xlink:href="#DejaVuSans-57" transform="translate(672.03125 0)"/>
      <use xlink:href="#DejaVuSans-48" transform="translate(711.234375 0)"/>
     </g>
    </g>
   </g>
  </g>
 </g>
 <defs>
  <clipPath id="p1b99f9dcc8">
   <rect x="58.748984" y="10.08" width="647.6" height="181.44"/>
  </clipPath>
 </defs>
</svg>
